<svg xmlns="http://www.w3.org/2000/svg" xmlns:xlink="http://www.w3.org/1999/xlink" width="64" zoomAndPan="magnify" viewBox="0 0 48 48" height="64" preserveAspectRatio="xMidYMid meet" version="1.0"><defs><g/><clipPath id="3ae8d29844"><path d="M 0.488281 0 L 47.507812 0 L 47.507812 47.019531 L 0.488281 47.019531 Z M 0.488281 0 " clip-rule="nonzero"/></clipPath><clipPath id="41b01c42be"><path d="M 4 0 L 44 0 L 44 47.019531 L 4 47.019531 Z M 4 0 " clip-rule="nonzero"/></clipPath><clipPath id="98371e7858"><rect x="0" width="40" y="0" height="48"/></clipPath><clipPath id="52158f6d88"><path d="M 12.050781 25.464844 L 14.625 25.464844 L 14.625 28.625 L 12.050781 28.625 Z M 12.050781 25.464844 " clip-rule="nonzero"/></clipPath><clipPath id="dbb8ed23f3"><path d="M 13.339844 25.464844 C 12.628906 25.464844 12.050781 26.171875 12.050781 27.042969 C 12.050781 27.914062 12.628906 28.621094 13.339844 28.621094 C 14.046875 28.621094 14.625 27.914062 14.625 27.042969 C 14.625 26.171875 14.046875 25.464844 13.339844 25.464844 Z M 13.339844 25.464844 " clip-rule="nonzero"/></clipPath><clipPath id="fefc5c2347"><path d="M 0.0507812 0.464844 L 2.625 0.464844 L 2.625 3.625 L 0.0507812 3.625 Z M 0.0507812 0.464844 " clip-rule="nonzero"/></clipPath><clipPath id="e89afed631"><path d="M 1.339844 0.464844 C 0.628906 0.464844 0.0507812 1.171875 0.0507812 2.042969 C 0.0507812 2.914062 0.628906 3.621094 1.339844 3.621094 C 2.046875 3.621094 2.625 2.914062 2.625 2.042969 C 2.625 1.171875 2.046875 0.464844 1.339844 0.464844 Z M 1.339844 0.464844 " clip-rule="nonzero"/></clipPath><clipPath id="df99ffa3c2"><rect x="0" width="3" y="0" height="4"/></clipPath><clipPath id="2e0b714d30"><path d="M 41 27 L 45 27 L 45 30 L 41 30 Z M 41 27 " clip-rule="nonzero"/></clipPath><clipPath id="757b418f76"><path d="M 41.730469 27.371094 L 44.25 27.796875 L 43.890625 29.917969 L 41.371094 29.496094 Z M 41.730469 27.371094 " clip-rule="nonzero"/></clipPath><clipPath id="bfff8d03f9"><path d="M 42.988281 27.585938 C 42.292969 27.46875 41.648438 27.847656 41.550781 28.433594 C 41.453125 29.019531 41.933594 29.589844 42.628906 29.707031 C 43.324219 29.824219 43.964844 29.441406 44.066406 28.855469 C 44.164062 28.269531 43.679688 27.699219 42.988281 27.585938 Z M 42.988281 27.585938 " clip-rule="nonzero"/></clipPath><clipPath id="dcac9f1310"><path d="M 0.398438 0.273438 L 3.21875 0.273438 L 3.21875 2.859375 L 0.398438 2.859375 Z M 0.398438 0.273438 " clip-rule="nonzero"/></clipPath><clipPath id="723d0eb85c"><path d="M 0.730469 0.371094 L 3.25 0.796875 L 2.890625 2.917969 L 0.371094 2.496094 Z M 0.730469 0.371094 " clip-rule="nonzero"/></clipPath><clipPath id="ff69ec88f8"><path d="M 1.988281 0.585938 C 1.292969 0.46875 0.648438 0.847656 0.550781 1.433594 C 0.453125 2.019531 0.933594 2.589844 1.628906 2.707031 C 2.324219 2.824219 2.964844 2.441406 3.066406 1.855469 C 3.164062 1.269531 2.679688 0.699219 1.988281 0.585938 Z M 1.988281 0.585938 " clip-rule="nonzero"/></clipPath><clipPath id="4f9c512775"><rect x="0" width="4" y="0" height="3"/></clipPath><clipPath id="6580323f2d"><path d="M 35 28 L 38 28 L 38 30 L 35 30 Z M 35 28 " clip-rule="nonzero"/></clipPath><clipPath id="6a9d92b73c"><path d="M 35.449219 28.007812 L 37.414062 28.269531 L 37.191406 29.917969 L 35.230469 29.65625 Z M 35.449219 28.007812 " clip-rule="nonzero"/></clipPath><clipPath id="945306b063"><path d="M 36.429688 28.140625 C 35.890625 28.066406 35.402344 28.378906 35.339844 28.832031 C 35.28125 29.285156 35.667969 29.714844 36.210938 29.785156 C 36.75 29.859375 37.238281 29.546875 37.296875 29.09375 C 37.359375 28.640625 36.96875 28.210938 36.429688 28.140625 Z M 36.429688 28.140625 " clip-rule="nonzero"/></clipPath><clipPath id="90407d19b8"><path d="M 0.0507812 0 L 2.402344 0 L 2.402344 2 L 0.0507812 2 Z M 0.0507812 0 " clip-rule="nonzero"/></clipPath><clipPath id="369920b11f"><path d="M 0.449219 0.0078125 L 2.414062 0.269531 L 2.191406 1.917969 L 0.230469 1.65625 Z M 0.449219 0.0078125 " clip-rule="nonzero"/></clipPath><clipPath id="3bff7f6a22"><path d="M 1.429688 0.140625 C 0.890625 0.0664062 0.402344 0.378906 0.339844 0.832031 C 0.28125 1.285156 0.667969 1.714844 1.210938 1.785156 C 1.75 1.859375 2.238281 1.546875 2.296875 1.09375 C 2.359375 0.640625 1.96875 0.210938 1.429688 0.140625 Z M 1.429688 0.140625 " clip-rule="nonzero"/></clipPath><clipPath id="0941480cef"><rect x="0" width="3" y="0" height="2"/></clipPath><clipPath id="80bd114ee8"><path d="M 41 15 L 44 15 L 44 18 L 41 18 Z M 41 15 " clip-rule="nonzero"/></clipPath><clipPath id="935ec3354f"><path d="M 40.550781 16.527344 L 41.613281 13.785156 L 45.722656 15.378906 L 44.660156 18.121094 Z M 40.550781 16.527344 " clip-rule="nonzero"/></clipPath><clipPath id="ca0d8c2619"><path d="M 40.550781 16.527344 L 41.613281 13.785156 L 45.722656 15.378906 L 44.660156 18.121094 Z M 40.550781 16.527344 " clip-rule="nonzero"/></clipPath><clipPath id="3e281e5a53"><path d="M 42 14 L 44 14 L 44 16 L 42 16 Z M 42 14 " clip-rule="nonzero"/></clipPath><clipPath id="c714f62aac"><path d="M 40.550781 16.527344 L 41.613281 13.785156 L 45.722656 15.378906 L 44.660156 18.121094 Z M 40.550781 16.527344 " clip-rule="nonzero"/></clipPath><clipPath id="601c4067c4"><path d="M 40.550781 16.527344 L 41.613281 13.785156 L 45.722656 15.378906 L 44.660156 18.121094 Z M 40.550781 16.527344 " clip-rule="nonzero"/></clipPath><clipPath id="9fd26af6fa"><path d="M 43 15 L 46 15 L 46 17 L 43 17 Z M 43 15 " clip-rule="nonzero"/></clipPath><clipPath id="81118122b9"><path d="M 40.550781 16.527344 L 41.613281 13.785156 L 45.722656 15.378906 L 44.660156 18.121094 Z M 40.550781 16.527344 " clip-rule="nonzero"/></clipPath><clipPath id="3bac38dced"><path d="M 40.550781 16.527344 L 41.613281 13.785156 L 45.722656 15.378906 L 44.660156 18.121094 Z M 40.550781 16.527344 " clip-rule="nonzero"/></clipPath><clipPath id="2734980b94"><path d="M 41.371094 42.320312 L 44.925781 42.320312 L 44.925781 45.828125 L 41.371094 45.828125 Z M 41.371094 42.320312 " clip-rule="nonzero"/></clipPath><clipPath id="775fe96246"><path d="M 43.144531 42.320312 C 42.164062 42.320312 41.371094 43.105469 41.371094 44.074219 C 41.371094 45.042969 42.164062 45.828125 43.144531 45.828125 C 44.121094 45.828125 44.917969 45.042969 44.917969 44.074219 C 44.917969 43.105469 44.121094 42.320312 43.144531 42.320312 Z M 43.144531 42.320312 " clip-rule="nonzero"/></clipPath><clipPath id="43ff254373"><path d="M 0.371094 0.320312 L 3.925781 0.320312 L 3.925781 3.828125 L 0.371094 3.828125 Z M 0.371094 0.320312 " clip-rule="nonzero"/></clipPath><clipPath id="5a64eea1b6"><path d="M 2.144531 0.320312 C 1.164062 0.320312 0.371094 1.105469 0.371094 2.074219 C 0.371094 3.042969 1.164062 3.828125 2.144531 3.828125 C 3.121094 3.828125 3.917969 3.042969 3.917969 2.074219 C 3.917969 1.105469 3.121094 0.320312 2.144531 0.320312 Z M 2.144531 0.320312 " clip-rule="nonzero"/></clipPath><clipPath id="9ec5e07ba6"><rect x="0" width="4" y="0" height="4"/></clipPath></defs><g clip-path="url(#3ae8d29844)"><path fill="#ffffff" d="M 0.488281 0 L 47.511719 0 L 47.511719 47.019531 L 0.488281 47.019531 Z M 0.488281 0 " fill-opacity="1" fill-rule="nonzero"/><path fill="#fffcef" d="M 0.488281 0 L 47.511719 0 L 47.511719 47.019531 L 0.488281 47.019531 Z M 0.488281 0 " fill-opacity="1" fill-rule="nonzero"/></g><g clip-path="url(#41b01c42be)"><g transform="matrix(1, 0, 0, 1, 4, 0.000000000000005041)"><g clip-path="url(#98371e7858)"><g fill="#864a1e" fill-opacity="1"><g transform="translate(0.909852, 38.793382)"><g><path d="M 19.484375 0.359375 C 15.816406 0.359375 12.628906 -0.457031 9.921875 -2.09375 C 7.222656 -3.738281 5.132812 -5.945312 3.65625 -8.71875 C 2.1875 -11.5 1.453125 -14.628906 1.453125 -18.109375 C 1.453125 -21.585938 2.210938 -24.726562 3.734375 -27.53125 C 5.253906 -30.332031 7.378906 -32.550781 10.109375 -34.1875 C 12.835938 -35.832031 15.960938 -36.65625 19.484375 -36.65625 C 20.890625 -36.65625 21.976562 -36.582031 22.75 -36.4375 C 23.519531 -36.289062 24.4375 -36.21875 25.5 -36.21875 C 26.320312 -36.21875 27.09375 -36.289062 27.8125 -36.4375 C 28.539062 -36.582031 29.191406 -36.65625 29.765625 -36.65625 C 30.148438 -36.65625 30.488281 -36.582031 30.78125 -36.4375 C 31.070312 -36.289062 31.316406 -36 31.515625 -35.5625 C 32.328125 -33.539062 33.046875 -31.644531 33.671875 -29.875 C 34.304688 -28.113281 34.632812 -26.691406 34.65625 -25.609375 C 34.6875 -24.523438 34.117188 -23.984375 32.953125 -23.984375 C 31.890625 -23.984375 30.992188 -24.40625 30.265625 -25.25 C 29.546875 -26.09375 28.800781 -27.082031 28.03125 -28.21875 C 27.257812 -29.351562 26.328125 -30.34375 25.234375 -31.1875 C 24.148438 -32.03125 22.71875 -32.453125 20.9375 -32.453125 C 19.25 -32.453125 17.875 -31.773438 16.8125 -30.421875 C 15.75 -29.066406 14.972656 -27.300781 14.484375 -25.125 C 14.003906 -22.957031 13.765625 -20.617188 13.765625 -18.109375 C 13.765625 -15.835938 13.96875 -13.640625 14.375 -11.515625 C 14.789062 -9.390625 15.476562 -7.648438 16.4375 -6.296875 C 17.40625 -4.953125 18.757812 -4.28125 20.5 -4.28125 C 21.03125 -4.28125 21.644531 -4.410156 22.34375 -4.671875 C 23.039062 -4.941406 23.390625 -5.363281 23.390625 -5.9375 L 23.390625 -11.015625 C 23.390625 -12.703125 23.269531 -13.976562 23.03125 -14.84375 C 22.789062 -15.71875 22.5 -16.359375 22.15625 -16.765625 C 21.820312 -17.179688 21.535156 -17.519531 21.296875 -17.78125 C 21.054688 -18.050781 20.9375 -18.453125 20.9375 -18.984375 C 20.9375 -19.703125 21.210938 -20.179688 21.765625 -20.421875 C 22.316406 -20.671875 23.003906 -20.796875 23.828125 -20.796875 C 24.703125 -20.796875 25.632812 -20.722656 26.625 -20.578125 C 27.613281 -20.429688 28.46875 -20.359375 29.1875 -20.359375 C 29.914062 -20.359375 30.773438 -20.429688 31.765625 -20.578125 C 32.753906 -20.722656 33.679688 -20.796875 34.546875 -20.796875 C 35.367188 -20.796875 36.054688 -20.671875 36.609375 -20.421875 C 37.171875 -20.179688 37.453125 -19.703125 37.453125 -18.984375 C 37.453125 -18.453125 37.328125 -18.050781 37.078125 -17.78125 C 36.835938 -17.519531 36.550781 -17.179688 36.21875 -16.765625 C 35.882812 -16.359375 35.609375 -15.71875 35.390625 -14.84375 C 35.171875 -13.976562 35.0625 -12.703125 35.0625 -11.015625 L 35.0625 -2.171875 C 35.0625 -1.304688 34.796875 -0.644531 34.265625 -0.1875 C 33.734375 0.269531 33.03125 0.453125 32.15625 0.359375 C 31.238281 0.265625 30.304688 0.164062 29.359375 0.0625 C 28.421875 -0.03125 27.664062 -0.078125 27.09375 -0.078125 C 26.03125 -0.078125 24.847656 -0.00390625 23.546875 0.140625 C 22.242188 0.285156 20.890625 0.359375 19.484375 0.359375 Z M 19.484375 0.359375 "/></g></g></g></g></g></g><g clip-path="url(#52158f6d88)"><g clip-path="url(#dbb8ed23f3)"><g transform="matrix(1, 0, 0, 1, 12, 25)"><g clip-path="url(#df99ffa3c2)"><g clip-path="url(#fefc5c2347)"><g clip-path="url(#e89afed631)"><path fill="#fffcef" d="M 0.0507812 0.464844 L 2.625 0.464844 L 2.625 3.625 L 0.0507812 3.625 Z M 0.0507812 0.464844 " fill-opacity="1" fill-rule="nonzero"/></g></g></g></g></g></g><g clip-path="url(#2e0b714d30)"><g clip-path="url(#757b418f76)"><g clip-path="url(#bfff8d03f9)"><g transform="matrix(1, 0, 0, 1, 41, 27)"><g clip-path="url(#4f9c512775)"><g clip-path="url(#dcac9f1310)"><g clip-path="url(#723d0eb85c)"><g clip-path="url(#ff69ec88f8)"><path fill="#fffcef" d="M 0.730469 0.371094 L 3.242188 0.796875 L 2.882812 2.917969 L 0.371094 2.496094 Z M 0.730469 0.371094 " fill-opacity="1" fill-rule="nonzero"/></g></g></g></g></g></g></g></g><g clip-path="url(#6580323f2d)"><g clip-path="url(#6a9d92b73c)"><g clip-path="url(#945306b063)"><g transform="matrix(1, 0, 0, 1, 35, 28)"><g clip-path="url(#0941480cef)"><g clip-path="url(#90407d19b8)"><g clip-path="url(#369920b11f)"><g clip-path="url(#3bff7f6a22)"><path fill="#fffcef" d="M 0.449219 0.0078125 L 2.40625 0.269531 L 2.1875 1.917969 L 0.230469 1.65625 Z M 0.449219 0.0078125 " fill-opacity="1" fill-rule="nonzero"/></g></g></g></g></g></g></g></g><g clip-path="url(#80bd114ee8)"><g clip-path="url(#935ec3354f)"><g clip-path="url(#ca0d8c2619)"><path fill="#864a1e" d="M 42.359375 17.226562 C 42.359375 17.226562 43.121094 17.355469 42.996094 16.082031 C 42.996094 16.082031 42.835938 15.484375 42.144531 15.933594 C 42.144531 15.933594 40.640625 16.304688 42.359375 17.226562 Z M 42.359375 17.226562 " fill-opacity="1" fill-rule="nonzero"/></g></g></g><g clip-path="url(#3e281e5a53)"><g clip-path="url(#c714f62aac)"><g clip-path="url(#601c4067c4)"><path fill="#864a1e" d="M 42.800781 15.085938 C 42.800781 15.085938 43.175781 15.152344 43.113281 14.527344 C 43.113281 14.527344 43.035156 14.234375 42.695312 14.453125 C 42.695312 14.453125 41.957031 14.636719 42.800781 15.085938 Z M 42.800781 15.085938 " fill-opacity="1" fill-rule="nonzero"/></g></g></g><g clip-path="url(#9fd26af6fa)"><g clip-path="url(#81118122b9)"><g clip-path="url(#3bac38dced)"><path fill="#864a1e" d="M 43.890625 15.835938 C 43.890625 15.835938 43.8125 17.179688 44.457031 16.769531 C 45.097656 16.359375 45.359375 16.128906 45.359375 16.128906 C 45.359375 16.128906 44.398438 14.65625 44.144531 15.246094 C 43.890625 15.835938 43.890625 15.835938 43.890625 15.835938 Z M 43.890625 15.835938 " fill-opacity="1" fill-rule="nonzero"/></g></g></g><g clip-path="url(#2734980b94)"><g clip-path="url(#775fe96246)"><g transform="matrix(1, 0, 0, 1, 41, 42)"><g clip-path="url(#9ec5e07ba6)"><g clip-path="url(#43ff254373)"><g clip-path="url(#5a64eea1b6)"><path fill="#fffcef" d="M 0.371094 0.320312 L 3.910156 0.320312 L 3.910156 3.828125 L 0.371094 3.828125 Z M 0.371094 0.320312 " fill-opacity="1" fill-rule="nonzero"/></g></g></g></g></g></g></svg>